<svg xmlns="http://www.w3.org/2000/svg" >
  <defs>
    <symbol id="home" viewBox="0 0 18 19" fill="none" xmlns="http://www.w3.org/2000/svg">
      <path d="M17 15.0002V9.45222C17 8.91789 16.9995 8.65057 16.9346 8.40193C16.877 8.18159 16.7825 7.97307 16.6546 7.78464C16.5102 7.57201 16.3096 7.39569 15.9074 7.04383L11.1074 2.84383C10.3608 2.19054 9.98751 1.86406 9.56738 1.73982C9.19719 1.63035 8.80261 1.63035 8.43242 1.73982C8.01261 1.86397 7.63985 2.19014 6.89436 2.84244L2.09277 7.04383C1.69064 7.39569 1.49004 7.57201 1.3457 7.78464C1.21779 7.97307 1.12255 8.18159 1.06497 8.40193C1 8.65057 1 8.91788 1 9.45222V15.0002C1 15.932 1 16.3978 1.15224 16.7654C1.35523 17.2554 1.74432 17.6452 2.23438 17.8482C2.60192 18.0005 3.06786 18.0005 3.99974 18.0005C4.93163 18.0005 5.39808 18.0005 5.76562 17.8482C6.25568 17.6452 6.64467 17.2555 6.84766 16.7654C6.9999 16.3979 7 15.932 7 15.0001V14.0001C7 12.8955 7.89543 12.0001 9 12.0001C10.1046 12.0001 11 12.8955 11 14.0001V15.0001C11 15.932 11 16.3979 11.1522 16.7654C11.3552 17.2555 11.7443 17.6452 12.2344 17.8482C12.6019 18.0005 13.0679 18.0005 13.9997 18.0005C14.9316 18.0005 15.3981 18.0005 15.7656 17.8482C16.2557 17.6452 16.6447 17.2554 16.8477 16.7654C16.9999 16.3978 17 15.932 17 15.0002Z" stroke="white" stroke-width="2" stroke-linecap="round" stroke-linejoin="round"/>
    </symbol>
    <symbol id="product" viewBox="0 0 20 22" fill="none" xmlns="http://www.w3.org/2000/svg">
      <path d="M19 11L10 17L1 11M19 15L10 21L1 15M19 7L10 13L1 7L10 1L19 7Z" stroke="white" stroke-width="2" stroke-linecap="round" stroke-linejoin="round"/>
    </symbol>
    <symbol id="categories" viewBox="0 0 20 20" fill="none" xmlns="http://www.w3.org/2000/svg">
      <path d="M7 7V4.2002C7 3.08009 7 2.51962 7.21799 2.0918C7.40973 1.71547 7.71547 1.40973 8.0918 1.21799C8.51962 1 9.08009 1 10.2002 1H15.8002C16.9203 1 17.4801 1 17.9079 1.21799C18.2842 1.40973 18.5905 1.71547 18.7822 2.0918C19.0002 2.51962 19.0002 3.07967 19.0002 4.19978V9.7998C19.0002 10.9199 19.0002 11.48 18.7822 11.9078C18.5905 12.2841 18.2839 12.5905 17.9076 12.7822C17.4802 13 16.921 13 15.8031 13H13M7 7H4.2002C3.08009 7 2.51962 7 2.0918 7.21799C1.71547 7.40973 1.40973 7.71547 1.21799 8.0918C1 8.51962 1 9.08009 1 10.2002V15.8002C1 16.9203 1 17.4801 1.21799 17.9079C1.40973 18.2842 1.71547 18.5905 2.0918 18.7822C2.5192 19 3.07899 19 4.19691 19H9.80355C10.9215 19 11.4805 19 11.9079 18.7822C12.2842 18.5905 12.5905 18.2839 12.7822 17.9076C13 17.4802 13 16.921 13 15.8031V13M7 7H9.8002C10.9203 7 11.4801 7 11.9079 7.21799C12.2842 7.40973 12.5905 7.71547 12.7822 8.0918C13 8.51921 13 9.079 13 10.1969L13 13" stroke="white" stroke-width="2" stroke-linecap="round" stroke-linejoin="round"/>
    </symbol>
    <symbol id="frontend" viewBox="0 0 20 21" fill="none" xmlns="http://www.w3.org/2000/svg">
      <path d="M4.5 20H18.4706C18.763 20 19.0002 19.7631 19.0002 19.4707L19 13.5293M5.98047 19.6713L18.6421 13.7671C18.9071 13.6435 19.0217 13.3285 18.8981 13.0635L16.3872 7.6792C16.2636 7.41421 15.9486 7.29914 15.6836 7.42271L10.0303 10.0591M7.88182 17.4048C7.38152 19.2719 5.46235 20.38 3.59521 19.8797C1.72808 19.3794 0.619816 17.4604 1.12011 15.5933L4.73596 2.09863C4.81163 1.81621 5.10168 1.64855 5.3841 1.72422L11.1231 3.26171C11.4055 3.33738 11.5731 3.6276 11.4974 3.91002L7.88182 17.4048ZM4.5 16.6001H4.502L4.50195 16.6021L4.5 16.6021V16.6001Z" stroke="white" stroke-width="2" stroke-linecap="round" stroke-linejoin="round"/>
    </symbol>
    <symbol id="orders" viewBox="0 0 20 20" fill="none" xmlns="http://www.w3.org/2000/svg">
      <path d="M7 13V16C7 17.6569 5.65685 19 4 19C2.34315 19 1 17.6569 1 16C1 14.3431 2.34315 13 4 13H7ZM7 13H13M7 13V7M13 13V16C13 17.6569 14.3431 19 16 19C17.6569 19 19 17.6569 19 16C19 14.3431 17.6569 13 16 13H13ZM13 13V7M13 7H7M13 7V4C13 2.34315 14.3431 1 16 1C17.6569 1 19 2.34315 19 4C19 5.65685 17.6569 7 16 7H13ZM7 7V4C7 2.34315 5.65685 1 4 1C2.34315 1 1 2.34315 1 4C1 5.65685 2.34315 7 4 7H7Z" stroke="white" stroke-width="2" stroke-linecap="round" stroke-linejoin="round"/>
    </symbol>
    <symbol id="settings" viewBox="0 0 20 22" fill="none" xmlns="http://www.w3.org/2000/svg">
      <path d="M11.6006 20.0761L17.0608 16.9236C17.6437 16.5871 17.9346 16.4188 18.1465 16.1834C18.3341 15.9751 18.4759 15.7297 18.5625 15.4632C18.6602 15.1626 18.6602 14.8267 18.6602 14.1568V7.84268C18.6602 7.17277 18.6602 6.83694 18.5625 6.53638C18.4759 6.26982 18.3341 6.02428 18.1465 5.816C17.9355 5.58161 17.6453 5.41405 17.0674 5.08043L11.5996 1.92359C11.0167 1.58706 10.7259 1.41913 10.416 1.35328C10.1419 1.295 9.85843 1.295 9.58427 1.35328C9.27443 1.41914 8.98259 1.58706 8.39971 1.92359L2.93843 5.07666C2.35623 5.41279 2.06535 5.58073 1.85352 5.816C1.66597 6.02428 1.52434 6.26982 1.43773 6.53638C1.33984 6.83765 1.33984 7.17436 1.33984 7.84742V14.1524C1.33984 14.8254 1.33984 15.1619 1.43773 15.4632C1.52434 15.7297 1.66597 15.9751 1.85352 16.1834C2.06548 16.4188 2.35657 16.5871 2.93945 16.9236L8.39971 20.0761C8.98258 20.4126 9.27443 20.5806 9.58427 20.6465C9.85843 20.7047 10.1419 20.7047 10.416 20.6465C10.7259 20.5806 11.0177 20.4126 11.6006 20.0761Z" stroke="white" stroke-width="2" stroke-linecap="round" stroke-linejoin="round"/>
      <path d="M7 10.9998C7 12.6566 8.34315 13.9998 10 13.9998C11.6569 13.9998 13 12.6566 13 10.9998C13 9.34291 11.6569 7.99976 10 7.99976C8.34315 7.99976 7 9.34291 7 10.9998Z" stroke="white" stroke-width="2" stroke-linecap="round" stroke-linejoin="round"/>
    </symbol>
    <symbol id="users" viewBox="0 0 16 20" fill="none" xmlns="http://www.w3.org/2000/svg">
      <path d="M15 19C15 15.134 11.866 12 8 12C4.13401 12 1 15.134 1 19M8 9C5.79086 9 4 7.20914 4 5C4 2.79086 5.79086 1 8 1C10.2091 1 12 2.79086 12 5C12 7.20914 10.2091 9 8 9Z" stroke="white" stroke-width="2" stroke-linecap="round" stroke-linejoin="round"/>
    </symbol>
    <symbol id="logout" viewBox="0 0 18 18" fill="none" xmlns="http://www.w3.org/2000/svg">
      <path d="M9 12L12 9M12 9L9 6M12 9H1M6 4.24859V4.2002C6 3.08009 6 2.51962 6.21799 2.0918C6.40973 1.71547 6.71547 1.40973 7.0918 1.21799C7.51962 1 8.08009 1 9.2002 1H13.8002C14.9203 1 15.4796 1 15.9074 1.21799C16.2837 1.40973 16.5905 1.71547 16.7822 2.0918C17 2.5192 17 3.07899 17 4.19691V13.8036C17 14.9215 17 15.4805 16.7822 15.9079C16.5905 16.2842 16.2837 16.5905 15.9074 16.7822C15.48 17 14.921 17 13.8031 17H9.19691C8.07899 17 7.5192 17 7.0918 16.7822C6.71547 16.5905 6.40973 16.2839 6.21799 15.9076C6 15.4798 6 14.9201 6 13.8V13.75" stroke="white" stroke-width="2" stroke-linecap="round" stroke-linejoin="round"/>
    </symbol>
  </defs>
</svg>