<svg xmlns="http://www.w3.org/2000/svg" >
  <defs>
    <symbol id="home" viewBox="0 0 18 19" fill="none" xmlns="http://www.w3.org/2000/svg">
      <path d="M17 15.0002V9.45222C17 8.91789 16.9995 8.65057 16.9346 8.40193C16.877 8.18159 16.7825 7.97307 16.6546 7.78464C16.5102 7.57201 16.3096 7.39569 15.9074 7.04383L11.1074 2.84383C10.3608 2.19054 9.98751 1.86406 9.56738 1.73982C9.19719 1.63035 8.80261 1.63035 8.43242 1.73982C8.01261 1.86397 7.63985 2.19014 6.89436 2.84244L2.09277 7.04383C1.69064 7.39569 1.49004 7.57201 1.3457 7.78464C1.21779 7.97307 1.12255 8.18159 1.06497 8.40193C1 8.65057 1 8.91788 1 9.45222V15.0002C1 15.932 1 16.3978 1.15224 16.7654C1.35523 17.2554 1.74432 17.6452 2.23438 17.8482C2.60192 18.0005 3.06786 18.0005 3.99974 18.0005C4.93163 18.0005 5.39808 18.0005 5.76562 17.8482C6.25568 17.6452 6.64467 17.2555 6.84766 16.7654C6.9999 16.3979 7 15.932 7 15.0001V14.0001C7 12.8955 7.89543 12.0001 9 12.0001C10.1046 12.0001 11 12.8955 11 14.0001V15.0001C11 15.932 11 16.3979 11.1522 16.7654C11.3552 17.2555 11.7443 17.6452 12.2344 17.8482C12.6019 18.0005 13.0679 18.0005 13.9997 18.0005C14.9316 18.0005 15.3981 18.0005 15.7656 17.8482C16.2557 17.6452 16.6447 17.2554 16.8477 16.7654C16.9999 16.3978 17 15.932 17 15.0002Z" stroke="white" stroke-width="2" stroke-linecap="round" stroke-linejoin="round"/>
    </symbol>
    <symbol id="product" viewBox="0 0 20 22" fill="none" xmlns="http://www.w3.org/2000/svg">
      <path d="M19 11L10 17L1 11M19 15L10 21L1 15M19 7L10 13L1 7L10 1L19 7Z" stroke="white" stroke-width="2" stroke-linecap="round" stroke-linejoin="round"/>
    </symbol>
    <symbol id="categories" viewBox="0 0 20 20" fill="none" xmlns="http://www.w3.org/2000/svg">
      <path d="M7 7V4.2002C7 3.08009 7 2.51962 7.21799 2.0918C7.40973 1.71547 7.71547 1.40973 8.0918 1.21799C8.51962 1 9.08009 1 10.2002 1H15.8002C16.9203 1 17.4801 1 17.9079 1.21799C18.2842 1.40973 18.5905 1.71547 18.7822 2.0918C19.0002 2.51962 19.0002 3.07967 19.0002 4.19978V9.7998C19.0002 10.9199 19.0002 11.48 18.7822 11.9078C18.5905 12.2841 18.2839 12.5905 17.9076 12.7822C17.4802 13 16.921 13 15.8031 13H13M7 7H4.2002C3.08009 7 2.51962 7 2.0918 7.21799C1.71547 7.40973 1.40973 7.71547 1.21799 8.0918C1 8.51962 1 9.08009 1 10.2002V15.8002C1 16.9203 1 17.4801 1.21799 17.9079C1.40973 18.2842 1.71547 18.5905 2.0918 18.7822C2.5192 19 3.07899 19 4.19691 19H9.80355C10.9215 19 11.4805 19 11.9079 18.7822C12.2842 18.5905 12.5905 18.2839 12.7822 17.9076C13 17.4802 13 16.921 13 15.8031V13M7 7H9.8002C10.9203 7 11.4801 7 11.9079 7.21799C12.2842 7.40973 12.5905 7.71547 12.7822 8.0918C13 8.51921 13 9.079 13 10.1969L13 13" stroke="white" stroke-width="2" stroke-linecap="round" stroke-linejoin="round"/>
    </symbol>
    <symbol id="frontend" viewBox="0 0 20 21" fill="none" xmlns="http://www.w3.org/2000/svg">
      <path d="M4.5 20H18.4706C18.763 20 19.0002 19.7631 19.0002 19.4707L19 13.5293M5.98047 19.6713L18.6421 13.7671C18.9071 13.6435 19.0217 13.3285 18.8981 13.0635L16.3872 7.6792C16.2636 7.41421 15.9486 7.29914 15.6836 7.42271L10.0303 10.0591M7.88182 17.4048C7.38152 19.2719 5.46235 20.38 3.59521 19.8797C1.72808 19.3794 0.619816 17.4604 1.12011 15.5933L4.73596 2.09863C4.81163 1.81621 5.10168 1.64855 5.3841 1.72422L11.1231 3.26171C11.4055 3.33738 11.5731 3.6276 11.4974 3.91002L7.88182 17.4048ZM4.5 16.6001H4.502L4.50195 16.6021L4.5 16.6021V16.6001Z" stroke="white" stroke-width="2" stroke-linecap="round" stroke-linejoin="round"/>
    </symbol>
    <symbol id="orders" viewBox="0 0 20 20" fill="none" xmlns="http://www.w3.org/2000/svg">
      <path d="M7 13V16C7 17.6569 5.65685 19 4 19C2.34315 19 1 17.6569 1 16C1 14.3431 2.34315 13 4 13H7ZM7 13H13M7 13V7M13 13V16C13 17.6569 14.3431 19 16 19C17.6569 19 19 17.6569 19 16C19 14.3431 17.6569 13 16 13H13ZM13 13V7M13 7H7M13 7V4C13 2.34315 14.3431 1 16 1C17.6569 1 19 2.34315 19 4C19 5.65685 17.6569 7 16 7H13ZM7 7V4C7 2.34315 5.65685 1 4 1C2.34315 1 1 2.34315 1 4C1 5.65685 2.34315 7 4 7H7Z" stroke="white" stroke-width="2" stroke-linecap="round" stroke-linejoin="round"/>
    </symbol>
    <symbol id="settings" viewBox="0 0 20 22" fill="none" xmlns="http://www.w3.org/2000/svg">
      <path d="M11.6006 20.0761L17.0608 16.9236C17.6437 16.5871 17.9346 16.4188 18.1465 16.1834C18.3341 15.9751 18.4759 15.7297 18.5625 15.4632C18.6602 15.1626 18.6602 14.8267 18.6602 14.1568V7.84268C18.6602 7.17277 18.6602 6.83694 18.5625 6.53638C18.4759 6.26982 18.3341 6.02428 18.1465 5.816C17.9355 5.58161 17.6453 5.41405 17.0674 5.08043L11.5996 1.92359C11.0167 1.58706 10.7259 1.41913 10.416 1.35328C10.1419 1.295 9.85843 1.295 9.58427 1.35328C9.27443 1.41914 8.98259 1.58706 8.39971 1.92359L2.93843 5.07666C2.35623 5.41279 2.06535 5.58073 1.85352 5.816C1.66597 6.02428 1.52434 6.26982 1.43773 6.53638C1.33984 6.83765 1.33984 7.17436 1.33984 7.84742V14.1524C1.33984 14.8254 1.33984 15.1619 1.43773 15.4632C1.52434 15.7297 1.66597 15.9751 1.85352 16.1834C2.06548 16.4188 2.35657 16.5871 2.93945 16.9236L8.39971 20.0761C8.98258 20.4126 9.27443 20.5806 9.58427 20.6465C9.85843 20.7047 10.1419 20.7047 10.416 20.6465C10.7259 20.5806 11.0177 20.4126 11.6006 20.0761Z" stroke="white" stroke-width="2" stroke-linecap="round" stroke-linejoin="round"/>
      <path d="M7 10.9998C7 12.6566 8.34315 13.9998 10 13.9998C11.6569 13.9998 13 12.6566 13 10.9998C13 9.34291 11.6569 7.99976 10 7.99976C8.34315 7.99976 7 9.34291 7 10.9998Z" stroke="white" stroke-width="2" stroke-linecap="round" stroke-linejoin="round"/>
    </symbol>
    <symbol id="users" viewBox="0 0 16 20" fill="none" xmlns="http://www.w3.org/2000/svg">
      <path d="M15 19C15 15.134 11.866 12 8 12C4.13401 12 1 15.134 1 19M8 9C5.79086 9 4 7.20914 4 5C4 2.79086 5.79086 1 8 1C10.2091 1 12 2.79086 12 5C12 7.20914 10.2091 9 8 9Z" stroke="white" stroke-width="2" stroke-linecap="round" stroke-linejoin="round"/>
    </symbol>
    <symbol id="logout" viewBox="0 0 18 18" fill="none" xmlns="http://www.w3.org/2000/svg">
      <path d="M9 12L12 9M12 9L9 6M12 9H1M6 4.24859V4.2002C6 3.08009 6 2.51962 6.21799 2.0918C6.40973 1.71547 6.71547 1.40973 7.0918 1.21799C7.51962 1 8.08009 1 9.2002 1H13.8002C14.9203 1 15.4796 1 15.9074 1.21799C16.2837 1.40973 16.5905 1.71547 16.7822 2.0918C17 2.5192 17 3.07899 17 4.19691V13.8036C17 14.9215 17 15.4805 16.7822 15.9079C16.5905 16.2842 16.2837 16.5905 15.9074 16.7822C15.48 17 14.921 17 13.8031 17H9.19691C8.07899 17 7.5192 17 7.0918 16.7822C6.71547 16.5905 6.40973 16.2839 6.21799 15.9076C6 15.4798 6 14.9201 6 13.8V13.75" stroke="white" stroke-width="2" stroke-linecap="round" stroke-linejoin="round"/>
    </symbol>
    <symbol id="time" viewBox="0 0 18 20" fill="none" xmlns="http://www.w3.org/2000/svg">
      <path d="M1 7H17M1 7V15.8002C1 16.9203 1 17.4801 1.21799 17.9079C1.40973 18.2842 1.71547 18.5905 2.0918 18.7822C2.5192 19 3.07899 19 4.19691 19H13.8031C14.921 19 15.48 19 15.9074 18.7822C16.2837 18.5905 16.5905 18.2842 16.7822 17.9079C17 17.4805 17 16.9215 17 15.8036V7M1 7V6.2002C1 5.08009 1 4.51962 1.21799 4.0918C1.40973 3.71547 1.71547 3.40973 2.0918 3.21799C2.51962 3 3.08009 3 4.2002 3H5M17 7V6.19691C17 5.07899 17 4.5192 16.7822 4.0918C16.5905 3.71547 16.2837 3.40973 15.9074 3.21799C15.4796 3 14.9203 3 13.8002 3H13M13 1V3M13 3H5M5 1V3" stroke="white" stroke-width="2" stroke-linecap="round" stroke-linejoin="round"/>
    </symbol>
    <symbol id="night" viewBox="0 0 20 20" fill="none" xmlns="http://www.w3.org/2000/svg">
      <path d="M7 4C7 8.97056 11.0294 13 16 13C16.9093 13 17.787 12.8655 18.6144 12.6147C17.4943 16.3103 14.0613 18.9999 10 18.9999C5.02944 18.9999 1 14.9707 1 10.0001C1 5.93883 3.69007 2.50583 7.38561 1.38574C7.13484 2.21311 7 3.09074 7 4Z" stroke="white" stroke-width="2" stroke-linecap="round" stroke-linejoin="round"/>
    </symbol>
    <symbol id="bell" viewBox="0 0 18 20" fill="none" xmlns="http://www.w3.org/2000/svg">
      <path d="M12 15V16C12 17.6569 10.6569 19 9 19C7.34315 19 6 17.6569 6 16V15M12 15H6M12 15H15.5905C15.973 15 16.1652 15 16.3201 14.9478C16.616 14.848 16.8475 14.6156 16.9473 14.3198C16.9997 14.1643 16.9997 13.9715 16.9997 13.5859C16.9997 13.4172 16.9995 13.3329 16.9863 13.2524C16.9614 13.1004 16.9024 12.9563 16.8126 12.8312C16.7651 12.7651 16.7048 12.7048 16.5858 12.5858L16.1963 12.1963C16.0706 12.0706 16 11.9001 16 11.7224V8C16 4.134 12.866 0.999991 9 1C5.13401 1.00001 2 4.13401 2 8V11.7224C2 11.9002 1.92924 12.0706 1.80357 12.1963L1.41406 12.5858C1.29476 12.7051 1.23504 12.765 1.1875 12.8312C1.09766 12.9564 1.03815 13.1004 1.0132 13.2524C1 13.3329 1 13.4172 1 13.586C1 13.9715 1 14.1642 1.05245 14.3197C1.15225 14.6156 1.3848 14.848 1.68066 14.9478C1.83556 15 2.02701 15 2.40956 15H6" stroke="white" stroke-width="2" stroke-linecap="round" stroke-linejoin="round"/>
    </symbol>
    <symbol id="upload" viewBox="0 0 20 18" fill="none" xmlns="http://www.w3.org/2000/svg">
      <path d="M10 13V7M10 7L7 9M10 7L13 9M1 3V13.8C1 14.9201 1 15.4798 1.21799 15.9076C1.40973 16.2839 1.71547 16.5905 2.0918 16.7822C2.5192 17 3.07899 17 4.19691 17H15.8031C16.921 17 17.48 17 17.9074 16.7822C18.2837 16.5905 18.5905 16.2841 18.7822 15.9078C19.0002 15.48 19.0002 14.9199 19.0002 13.7998L19.0002 6.19978C19.0002 5.07967 19.0002 4.51962 18.7822 4.0918C18.5905 3.71547 18.2839 3.40973 17.9076 3.21799C17.4798 3 16.9201 3 15.8 3H10M1 3H10M1 3C1 1.89543 1.89543 1 3 1H6.67452C7.1637 1 7.40886 1 7.63904 1.05526C7.84311 1.10425 8.03785 1.18526 8.2168 1.29492C8.41857 1.41857 8.59181 1.59182 8.9375 1.9375L10 3" stroke="currentColor" stroke-width="2" stroke-linecap="round" stroke-linejoin="round"/>
    </symbol>
    <symbol id="heart" xmlns="http://www.w3.org/2000/svg"  viewBox="0 -960 960 960" >
      <path d="m480-120-58-52q-101-91-167-157T150-447.5Q111-500 95.5-544T80-634q0-94 63-157t157-63q52 0 99 22t81 62q34-40 81-62t99-22q94 0 157 63t63 157q0 46-15.5 90T810-447.5Q771-395 705-329T538-172l-58 52Zm0-108q96-86 158-147.5t98-107q36-45.5 50-81t14-70.5q0-60-40-100t-100-40q-47 0-87 26.5T518-680h-76q-15-41-55-67.5T300-774q-60 0-100 40t-40 100q0 35 14 70.5t50 81q36 45.5 98 107T480-228Zm0-273Z" fill="currentColor"></path>
    </symbol>
    <symbol id="cart" xmlns="http://www.w3.org/2000/svg" viewBox="0 0 22 22" fill="none">
      <path d="M1.40002 0.0332031C0.84774 0.0332031 0.400024 0.480918 0.400024 1.0332C0.400024 1.58549 0.84774 2.0332 1.40002 2.0332V0.0332031ZM3.69256 1.0332L4.65779 0.771788C4.53973 0.335885 4.14417 0.0332031 3.69256 0.0332031V1.0332ZM7.41793 14.7884L6.45271 15.0498C6.58298 15.5308 7.0475 15.8425 7.54197 15.7807L7.41793 14.7884ZM18.8806 13.3556L19.0047 14.3479C19.4293 14.2948 19.7732 13.9773 19.8599 13.5582L18.8806 13.3556ZM20.6 5.04514L21.5793 5.24775C21.6402 4.95323 21.5654 4.64693 21.3755 4.41372C21.1856 4.18051 20.9008 4.04514 20.6 4.04514V5.04514ZM4.77913 5.04514L3.8139 5.30656L4.77913 5.04514ZM1.40002 2.0332H3.69256V0.0332031H1.40002V2.0332ZM7.54197 15.7807L19.0047 14.3479L18.7566 12.3633L7.2939 13.7962L7.54197 15.7807ZM19.8599 13.5582L21.5793 5.24775L19.6208 4.84254L17.9014 13.153L19.8599 13.5582ZM2.72733 1.29462L3.8139 5.30656L5.74435 4.78373L4.65779 0.771788L2.72733 1.29462ZM3.8139 5.30656L6.45271 15.0498L8.38316 14.527L5.74435 4.78373L3.8139 5.30656ZM20.6 4.04514H4.77913V6.04514H20.6V4.04514ZM10 18.5405C10 18.8166 9.77617 19.0405 9.50002 19.0405V21.0405C10.8807 21.0405 12 19.9212 12 18.5405H10ZM9.50002 19.0405C9.22388 19.0405 9.00002 18.8166 9.00002 18.5405H7.00002C7.00002 19.9212 8.11931 21.0405 9.50002 21.0405V19.0405ZM9.00002 18.5405C9.00002 18.2643 9.22388 18.0405 9.50002 18.0405V16.0405C8.11931 16.0405 7.00002 17.1598 7.00002 18.5405H9.00002ZM9.50002 18.0405C9.77617 18.0405 10 18.2643 10 18.5405H12C12 17.1598 10.8807 16.0405 9.50002 16.0405V18.0405ZM18 18.5405C18 18.8166 17.7762 19.0405 17.5 19.0405V21.0405C18.8807 21.0405 20 19.9212 20 18.5405H18ZM17.5 19.0405C17.2239 19.0405 17 18.8166 17 18.5405H15C15 19.9212 16.1193 21.0405 17.5 21.0405V19.0405ZM17 18.5405C17 18.2643 17.2239 18.0405 17.5 18.0405V16.0405C16.1193 16.0405 15 17.1598 15 18.5405H17ZM17.5 18.0405C17.7762 18.0405 18 18.2643 18 18.5405H20C20 17.1598 18.8807 16.0405 17.5 16.0405V18.0405Z" fill="currentColor"></path>
    </symbol>
    <symbol id="close" width="16" height="16" viewBox="0 0 16 16" fill="none" xmlns="http://www.w3.org/2000/svg">
      <path d="M15 1L1 15M15 15L1 1" stroke="currentColor" stroke-width="2" stroke-linecap="round"/>
    </symbol>
    <symbol id="menu-vertical" width="4" height="16" viewBox="0 0 4 16" fill="none" xmlns="http://www.w3.org/2000/svg">
      <path d="M1 14C1 14.5523 1.44772 15 2 15C2.55228 15 3 14.5523 3 14C3 13.4477 2.55228 13 2 13C1.44772 13 1 13.4477 1 14Z" stroke="currentColor" stroke-width="2" stroke-linecap="round" stroke-linejoin="round"/>
      <path d="M1 8C1 8.55228 1.44772 9 2 9C2.55228 9 3 8.55228 3 8C3 7.44772 2.55228 7 2 7C1.44772 7 1 7.44772 1 8Z" stroke="currentColor" stroke-width="2" stroke-linecap="round" stroke-linejoin="round"/>
      <path d="M1 2C1 2.55228 1.44772 3 2 3C2.55228 3 3 2.55228 3 2C3 1.44772 2.55228 1 2 1C1.44772 1 1 1.44772 1 2Z" stroke="currentColor" stroke-width="2" stroke-linecap="round" stroke-linejoin="round"/>
    </symbol>

  </defs>
</svg>